<svg viewBox="0 0 400 300" xmlns="http://www.w3.org/2000/svg">
  <!-- Background -->
  <rect width="400" height="300" fill="#F0F8FF"/>
  
  <!-- Office floor -->
  <rect x="0" y="250" width="400" height="50" fill="#708090" opacity="0.3"/>
  
  <!-- Desk -->
  <rect x="180" y="150" width="180" height="80" fill="#8B4513" stroke="#654321" stroke-width="3"/>
  <rect x="190" y="160" width="40" height="30" fill="#654321"/> <!-- drawer -->
  <rect x="240" y="160" width="40" height="30" fill="#654321"/> <!-- drawer -->
  
  <!-- Computer on desk -->
  <g transform="translate(270, 120)">
    <rect x="-30" y="10" width="60" height="35" fill="#696969" stroke="#2F4F4F" stroke-width="2"/>
    <rect x="-25" y="15" width="50" height="25" fill="#87CEEB"/>
    <rect x="-10" y="45" width="20" height="10" fill="#696969"/>
    <ellipse cx="0" cy="55" rx="25" ry="5" fill="#696969"/>
  </g>
  
  <!-- Daddy at desk -->
  <g transform="translate(270, 100)">
    <!-- Office chair -->
    <ellipse cx="0" cy="80" rx="35" ry="15" fill="#2F4F4F"/>
    <rect x="-5" y="60" width="10" height="25" fill="#2F4F4F"/>
    <!-- Body -->
    <ellipse cx="0" cy="30" rx="35" ry="40" fill="#4169E1"/>
    <!-- Head -->
    <circle cx="0" cy="-10" r="25" fill="#FDBCB4"/>
    <!-- Hair -->
    <path d="M -20 -30 Q -10 -35, 0 -33 Q 10 -35, 20 -30" fill="#654321" stroke="none"/>
    <!-- Glasses -->
    <circle cx="-8" cy="-10" r="8" fill="none" stroke="#696969" stroke-width="2"/>
    <circle cx="8" cy="-10" r="8" fill="none" stroke="#696969" stroke-width="2"/>
    <line x1="0" y1="-10" x2="0" y2="-10" stroke="#696969" stroke-width="2"/>
    <!-- Eyes looking at Allie -->
    <circle cx="-8" cy="-10" r="2" fill="#228B22"/>
    <circle cx="8" cy="-10" r="2" fill="#228B22"/>
    <!-- Warm smile -->
    <path d="M -10 0 Q 0 5, 10 0" stroke="#4169E1" stroke-width="2" fill="none"/>
    <!-- Arms typing -->
    <ellipse cx="-25" cy="30" rx="8" ry="20" fill="#FDBCB4" transform="rotate(-60 -25 30)"/>
    <ellipse cx="25" cy="30" rx="8" ry="20" fill="#FDBCB4" transform="rotate(60 25 30)"/>
  </g>
  
  <!-- Allie following -->
  <g transform="translate(120, 170)">
    <!-- Body -->
    <ellipse cx="0" cy="20" rx="30" ry="35" fill="#FFB6C1"/>
    <!-- Head -->
    <circle cx="0" cy="-15" r="25" fill="#FDBCB4"/>
    <!-- Hair -->
    <path d="M -20 -28 Q -15 -35, -8 -30 Q 0 -35, 8 -30 Q 15 -35, 20 -28" fill="#8B4513" stroke="none"/>
    <!-- Curious eyes looking at daddy -->
    <circle cx="-5" cy="-15" r="2.5" fill="#4682B4"/>
    <circle cx="10" cy="-15" r="2.5" fill="#4682B4"/>
    <!-- Interested smile -->
    <path d="M -8 -5 Q 0 -2, 8 -5" stroke="#FF69B4" stroke-width="2" fill="none"/>
    <!-- Arms - one holding toy clipboard -->
    <ellipse cx="-20" cy="15" rx="7" ry="18" fill="#FDBCB4" transform="rotate(-30 -20 15)"/>
    <ellipse cx="20" cy="15" rx="7" ry="18" fill="#FDBCB4" transform="rotate(30 20 15)"/>
    <!-- Toy clipboard -->
    <g transform="translate(28, 8)">
      <rect x="-10" y="-15" width="20" height="25" fill="#FFD700" stroke="#DAA520" stroke-width="1.5" rx="1"/>
      <rect x="-7" y="-12" width="14" height="18" fill="white"/>
      <rect x="-3" y="-17" width="6" height="3" fill="#C0C0C0" rx="0.5"/>
    </g>
    <!-- Legs walking -->
    <ellipse cx="-10" cy="45" rx="10" ry="20" fill="#FDBCB4" transform="rotate(-10 -10 45)"/>
    <ellipse cx="10" cy="45" rx="10" ry="20" fill="#FDBCB4" transform="rotate(10 10 45)"/>
  </g>
  
  <!-- Coffee mug on desk -->
  <g transform="translate(210, 135)">
    <ellipse cx="0" cy="10" rx="12" ry="3" fill="#8B4513"/>
    <path d="M -12 10 Q -12 20, 0 20 Q 12 20, 12 10" fill="#4682B4"/>
    <path d="M 12 13 Q 18 13, 18 17 Q 18 20, 12 20" fill="none" stroke="#4682B4" stroke-width="2"/>
    <!-- Steam -->
    <path d="M -3 5 Q -3 0, -1 -3 M 0 5 Q 0 0, 2 -3 M 3 5 Q 3 0, 5 -3" stroke="#D3D3D3" stroke-width="1" fill="none" opacity="0.5"/>
  </g>
  
  <!-- Window -->
  <rect x="30" y="30" width="80" height="100" fill="#87CEEB" stroke="#696969" stroke-width="3"/>
  <line x1="70" y1="30" x2="70" y2="130" stroke="#696969" stroke-width="3"/>
  <line x1="30" y1="80" x2="110" y2="80" stroke="#696969" stroke-width="3"/>
  <!-- Clouds outside -->
  <ellipse cx="50" cy="60" rx="15" ry="8" fill="white" opacity="0.7"/>
  <ellipse cx="90" cy="50" rx="20" ry="10" fill="white" opacity="0.7"/>
</svg>