<?xml version="1.0" encoding="UTF-8"?>
<svg width="400" height="400" xmlns="http://www.w3.org/2000/svg">
  <!-- Sky Background -->
  <rect width="400" height="400" fill="#87CEEB"/>
  
  <!-- Sun -->
  <circle cx="350" cy="50" r="30" fill="#FFD700"/>
  
  <!-- Garden Ground -->
  <rect x="0" y="250" width="400" height="150" fill="#90EE90"/>
  
  <!-- Flowers -->
  <circle cx="50" cy="270" r="15" fill="#FF69B4"/>
  <circle cx="50" cy="270" r="5" fill="#FFD700"/>
  
  <circle cx="150" cy="280" r="15" fill="#DA70D6"/>
  <circle cx="150" cy="280" r="5" fill="#FFD700"/>
  
  <circle cx="350" cy="275" r="15" fill="#FF69B4"/>
  <circle cx="350" cy="275" r="5" fill="#FFD700"/>
  
  <!-- Girl Body -->
  <rect x="170" y="180" width="60" height="80" fill="#FFD700" rx="10"/>
  
  <!-- Girl Head -->
  <circle cx="200" cy="150" r="35" fill="#FDBCB4"/>
  
  <!-- Hair -->
  <path d="M 165 140 Q 165 120 200 120 Q 235 120 235 140" fill="#8B4513"/>
  
  <!-- Eyes -->
  <circle cx="185" cy="145" r="3" fill="#000"/>
  <circle cx="215" cy="145" r="3" fill="#000"/>
  
  <!-- Smile -->
  <path d="M 185 160 Q 200 170 215 160" stroke="#000" stroke-width="2" fill="none"/>
  
  <!-- Arms holding carrots -->
  <rect x="140" y="180" width="30" height="8" fill="#FDBCB4" transform="rotate(-30 155 184)"/>
  <rect x="230" y="180" width="30" height="8" fill="#FDBCB4" transform="rotate(30 245 184)"/>
  
  <!-- Carrots -->
  <ellipse cx="180" cy="200" rx="8" ry="25" fill="#FF8C00" transform="rotate(-20 180 200)"/>
  <ellipse cx="200" cy="200" rx="8" ry="25" fill="#9370DB" transform="rotate(0 200 200)"/>
  <ellipse cx="220" cy="200" rx="8" ry="25" fill="#FFD700" transform="rotate(20 220 200)"/>
  
  <!-- Carrot Tops -->
  <path d="M 175 180 L 170 170 M 180 180 L 180 170 M 185 180 L 190 170" stroke="#00FF00" stroke-width="3"/>
  <path d="M 195 180 L 190 170 M 200 180 L 200 170 M 205 180 L 210 170" stroke="#00FF00" stroke-width="3"/>
  <path d="M 215 180 L 210 170 M 220 180 L 220 170 M 225 180 L 230 170" stroke="#00FF00" stroke-width="3"/>
  
  <!-- Butterflies -->
  <ellipse cx="100" cy="100" rx="10" ry="5" fill="#FF69B4"/>
  <ellipse cx="100" cy="100" rx="5" ry="10" fill="#FF69B4"/>
  
  <ellipse cx="300" cy="150" rx="10" ry="5" fill="#00CED1"/>
  <ellipse cx="300" cy="150" rx="5" ry="10" fill="#00CED1"/>
</svg>